<mxfile host="app.diagrams.net" modified="2023-12-16T07:52:30.461Z" agent="Mozilla/5.0 (Macintosh; Intel Mac OS X 10_15_7) AppleWebKit/537.36 (KHTML, like Gecko) Chrome/120.0.0.0 Safari/537.36" etag="3uz2tE3eUZ6ZBBQw4Blt" version="22.1.11" type="github">
  <diagram name="ページ1" id="u_0_eenIJWHdSVMQ2Iz3">
    <mxGraphModel dx="1434" dy="672" grid="1" gridSize="10" guides="1" tooltips="1" connect="1" arrows="1" fold="1" page="1" pageScale="1" pageWidth="827" pageHeight="1169" math="0" shadow="0">
      <root>
        <mxCell id="0" />
        <mxCell id="1" parent="0" />
        <mxCell id="Kafa2kgNL4quUZINUEVk-1" style="edgeStyle=orthogonalEdgeStyle;rounded=0;orthogonalLoop=1;jettySize=auto;html=1;entryX=0.5;entryY=0;entryDx=0;entryDy=0;" parent="1" source="Kafa2kgNL4quUZINUEVk-3" target="NpNsBloTD-FiAFagpWwo-1" edge="1">
          <mxGeometry relative="1" as="geometry">
            <mxPoint x="414" y="280" as="targetPoint" />
          </mxGeometry>
        </mxCell>
        <mxCell id="Kafa2kgNL4quUZINUEVk-2" value="アクセス" style="edgeLabel;html=1;align=center;verticalAlign=middle;resizable=0;points=[];" parent="Kafa2kgNL4quUZINUEVk-1" vertex="1" connectable="0">
          <mxGeometry x="-0.06" y="-1" relative="1" as="geometry">
            <mxPoint as="offset" />
          </mxGeometry>
        </mxCell>
        <mxCell id="Kafa2kgNL4quUZINUEVk-3" value="user" style="html=1;verticalLabelPosition=bottom;align=center;labelBackgroundColor=#ffffff;verticalAlign=top;strokeWidth=2;strokeColor=#0080F0;shadow=0;dashed=0;shape=mxgraph.ios7.icons.user;" parent="1" vertex="1">
          <mxGeometry x="399" y="20" width="30" height="30" as="geometry" />
        </mxCell>
        <mxCell id="Kafa2kgNL4quUZINUEVk-4" style="edgeStyle=orthogonalEdgeStyle;rounded=0;orthogonalLoop=1;jettySize=auto;html=1;exitX=0.5;exitY=1;exitDx=0;exitDy=0;entryX=0.5;entryY=0;entryDx=0;entryDy=0;" parent="1" source="Kafa2kgNL4quUZINUEVk-5" target="Kafa2kgNL4quUZINUEVk-11" edge="1">
          <mxGeometry relative="1" as="geometry" />
        </mxCell>
        <mxCell id="Kafa2kgNL4quUZINUEVk-5" value="" style="strokeColor=#dddddd;shadow=1;strokeWidth=1;rounded=1;absoluteArcSize=1;arcSize=2;" parent="1" vertex="1">
          <mxGeometry x="364" y="280" width="100" height="60" as="geometry" />
        </mxCell>
        <mxCell id="Kafa2kgNL4quUZINUEVk-6" value="cdn" style="sketch=0;dashed=0;connectable=0;html=1;fillColor=#5184F3;strokeColor=none;shape=mxgraph.gcp2.firebase;part=1;labelPosition=right;verticalLabelPosition=middle;align=left;verticalAlign=middle;spacingLeft=5;fontColor=#999999;fontSize=12;" parent="Kafa2kgNL4quUZINUEVk-5" vertex="1">
          <mxGeometry width="32.4" height="45" relative="1" as="geometry">
            <mxPoint x="5" y="7" as="offset" />
          </mxGeometry>
        </mxCell>
        <mxCell id="Kafa2kgNL4quUZINUEVk-7" style="edgeStyle=orthogonalEdgeStyle;rounded=0;orthogonalLoop=1;jettySize=auto;html=1;entryX=1;entryY=0.5;entryDx=0;entryDy=0;" parent="1" source="Kafa2kgNL4quUZINUEVk-9" target="Kafa2kgNL4quUZINUEVk-5" edge="1">
          <mxGeometry relative="1" as="geometry" />
        </mxCell>
        <mxCell id="Kafa2kgNL4quUZINUEVk-8" value="hosting" style="edgeLabel;html=1;align=center;verticalAlign=middle;resizable=0;points=[];" parent="Kafa2kgNL4quUZINUEVk-7" vertex="1" connectable="0">
          <mxGeometry x="0.0385" y="-1" relative="1" as="geometry">
            <mxPoint as="offset" />
          </mxGeometry>
        </mxCell>
        <mxCell id="Kafa2kgNL4quUZINUEVk-9" value="" style="strokeColor=#dddddd;shadow=1;strokeWidth=1;rounded=1;absoluteArcSize=1;arcSize=2;" parent="1" vertex="1">
          <mxGeometry x="620" y="280" width="100" height="60" as="geometry" />
        </mxCell>
        <mxCell id="Kafa2kgNL4quUZINUEVk-10" value="storage" style="sketch=0;dashed=0;connectable=0;html=1;fillColor=#5184F3;strokeColor=none;shape=mxgraph.gcp2.firebase;part=1;labelPosition=right;verticalLabelPosition=middle;align=left;verticalAlign=middle;spacingLeft=5;fontColor=#999999;fontSize=12;" parent="Kafa2kgNL4quUZINUEVk-9" vertex="1">
          <mxGeometry width="32.4" height="45" relative="1" as="geometry">
            <mxPoint x="5" y="7" as="offset" />
          </mxGeometry>
        </mxCell>
        <mxCell id="Kafa2kgNL4quUZINUEVk-11" value="" style="strokeColor=#dddddd;shadow=1;strokeWidth=1;rounded=1;absoluteArcSize=1;arcSize=2;" parent="1" vertex="1">
          <mxGeometry x="364" y="420" width="100" height="60" as="geometry" />
        </mxCell>
        <mxCell id="Kafa2kgNL4quUZINUEVk-12" value="database" style="sketch=0;dashed=0;connectable=0;html=1;fillColor=#5184F3;strokeColor=none;shape=mxgraph.gcp2.firebase;part=1;labelPosition=right;verticalLabelPosition=middle;align=left;verticalAlign=middle;spacingLeft=5;fontColor=#999999;fontSize=12;" parent="Kafa2kgNL4quUZINUEVk-11" vertex="1">
          <mxGeometry width="32.4" height="45" relative="1" as="geometry">
            <mxPoint x="5" y="7" as="offset" />
          </mxGeometry>
        </mxCell>
        <mxCell id="NpNsBloTD-FiAFagpWwo-3" style="edgeStyle=orthogonalEdgeStyle;rounded=0;orthogonalLoop=1;jettySize=auto;html=1;" edge="1" parent="1" source="NpNsBloTD-FiAFagpWwo-1" target="Kafa2kgNL4quUZINUEVk-5">
          <mxGeometry relative="1" as="geometry" />
        </mxCell>
        <mxCell id="NpNsBloTD-FiAFagpWwo-1" value="" style="strokeColor=#dddddd;shadow=1;strokeWidth=1;rounded=1;absoluteArcSize=1;arcSize=2;" vertex="1" parent="1">
          <mxGeometry x="364" y="130" width="100" height="60" as="geometry" />
        </mxCell>
        <mxCell id="NpNsBloTD-FiAFagpWwo-2" value="認証" style="sketch=0;dashed=0;connectable=0;html=1;fillColor=#5184F3;strokeColor=none;shape=mxgraph.gcp2.firebase;part=1;labelPosition=right;verticalLabelPosition=middle;align=left;verticalAlign=middle;spacingLeft=5;fontColor=#999999;fontSize=12;" vertex="1" parent="NpNsBloTD-FiAFagpWwo-1">
          <mxGeometry width="32.4" height="45" relative="1" as="geometry">
            <mxPoint x="5" y="7" as="offset" />
          </mxGeometry>
        </mxCell>
      </root>
    </mxGraphModel>
  </diagram>
</mxfile>
